<?xml version="1.0" encoding="utf-8"?>
<!-- Generator: Adobe Illustrator 25.4.1, SVG Export Plug-In . SVG Version: 6.00 Build 0)  -->
<svg version="1.1" id="Layer_1" xmlns="http://www.w3.org/2000/svg" xmlns:xlink="http://www.w3.org/1999/xlink" x="0px" y="0px" width='40px' height='40px'
	 viewBox="0 0 40 40" style="enable-background:new 0 0 40 40;" xml:space="preserve">
<style type="text/css">
	.st0{fill:#3DC2B1;}
	.st1{fill:none;stroke:#FFFFFF;stroke-width:1.5;stroke-linecap:round;stroke-linejoin:round;}
	.st2{fill:#243A50;}
	.st3{fill:#243A4F;}
	.st4{fill:#C23D4E;}
	.st5{fill:#2C3F54;}
	.st6{fill:#273C51;}
	.st7{fill:#F9FBFB;}
	.st8{fill:#F7FAFB;}
	.st9{fill:#F3FBFB;}
	.st10{fill:#F3F7F8;}
	.st11{fill:none;stroke:#2E4256;stroke-miterlimit:10;}
</style>
<path class="st0" d="M8,0h24c4.4,0,8,3.6,8,8v24c0,4.4-3.6,8-8,8H8c-4.4,0-8-3.6-8-8V8C0,3.6,3.6,0,8,0z"/>
<path class="st1" d="M16,20"/>
<path class="st2" d="M21,30.7c-1.4,0-2.6-1.1-2.7-2.5s0.9-2.7,2.3-2.7c0.9,0,1.4-0.4,2-0.9c2-1.7,4.1-3.4,6.1-5
	c0.3-0.2,0.6-0.7,1-0.3c0.4,0.4-0.1,0.7-0.3,1c-1.7,2.1-3.4,4.1-5.1,6.2c-0.5,0.5-0.7,1.1-0.7,1.8C23.6,29.6,22.4,30.7,21,30.7z"/>
<path class="st3" d="M21.8,17.6c1.2,0,2.9,0.4,4.5,1.3c0.3,0.2,0.8,0.3,0.5,0.8s-0.6,0.2-0.9,0c-6.1-3.4-13.9,0.6-14.4,8
	c0,0.4,0.1,0.9-0.5,0.9s-0.4-0.6-0.4-1C10.6,22.2,15.5,17.6,21.8,17.6z"/>
<path class="st3" d="M21.2,15.6c-1.9,0-3.5-1.5-3.6-3.4c0-1.9,1.5-3.5,3.4-3.5s3.5,1.5,3.5,3.4C24.7,14,23.1,15.6,21.2,15.6z"/>
<path class="st4" d="M32.2,19.6c-2,0-3.5-1.6-3.4-3.5c0-1.9,1.6-3.5,3.5-3.5s3.5,1.7,3.5,3.6C35.7,18.1,34.1,19.6,32.2,19.6z"/>
<path class="st5" d="M13.6,16.1c0,2-1.6,3.4-3.5,3.4S6.6,17.9,6.6,16s1.7-3.5,3.6-3.5C12.1,12.6,13.6,14.2,13.6,16.1z"/>
<path class="st6" d="M13.7,27.7c0.2-4.8,5.5-8.2,9.9-6.5c0.3,0.1,0.8,0.2,0.7,0.7c-0.2,0.6-0.6,0.2-1,0.1c-4.3-1.2-8.2,1.3-8.7,5.7
	c0,0.4,0.1,0.9-0.5,0.9C13.5,28.6,13.8,28,13.7,27.7z"/>
<path class="st4" d="M31.7,27.6c-0.1,0.4,0.2,0.9-0.3,1c-0.7,0.1-0.5-0.6-0.6-1c-0.1-1.7-0.6-3.3-1.5-4.7c-0.2-0.3-0.5-0.7-0.1-0.9
	c0.4-0.3,0.6,0.2,0.8,0.4C31.1,24,31.7,25.7,31.7,27.6z"/>
<path class="st4" d="M28.6,27.6c0,0.5,0.1,0.9-0.4,1c-0.4,0-0.5-0.4-0.5-0.7c0-0.9-0.3-1.8-0.7-2.6c-0.1-0.3-0.2-0.6,0.1-0.7
	c0.4-0.2,0.6,0.1,0.7,0.4C28.3,25.8,28.5,26.8,28.6,27.6z"/>
<path class="st7" d="M25.5,23.5c-0.6,0.7-1.2,1.5-1.8,2.2c-0.6,0.7-1.2,1.3-1.1,2.5c0.1,0.9-0.7,1.6-1.7,1.6
	c-0.9,0.1-1.7-0.7-1.8-1.6c-0.1-1,0.5-1.9,1.4-1.9c1.4,0.1,2.1-0.8,3-1.5c0.6-0.5,1.2-1,1.7-1.4C25.4,23.4,25.5,23.5,25.5,23.5z"/>
<path class="st8" d="M21.1,14.7c-1.4,0-2.6-1.2-2.6-2.6c0-1.5,1.2-2.6,2.7-2.6c1.4,0,2.6,1.3,2.5,2.7C23.7,13.6,22.5,14.8,21.1,14.7
	z"/>
<path class="st9" d="M32.2,18.7c-1.4,0-2.6-1.2-2.6-2.6s1.2-2.6,2.6-2.6c1.5,0,2.6,1.2,2.6,2.7C34.8,17.6,33.6,18.7,32.2,18.7z"/>
<path class="st10" d="M10.1,13.5c1.4,0,2.6,1.2,2.6,2.6s-1.2,2.6-2.6,2.6S7.4,17.5,7.4,16C7.5,14.6,8.7,13.5,10.1,13.5z"/>
<path class="st4" d="M34.1,15.2c-0.3,0.7-0.8,1-1.2,1.5c-1,1-1.8,0.9-2.4-0.4c-0.1-0.2-0.2-0.4,0-0.5c0.2-0.2,0.4-0.2,0.5-0.1
	c1,1.2,1.5,0,2.1-0.5c0.2-0.2,0.4-0.4,0.7-0.3C33.9,14.9,34,15.1,34.1,15.2z"/>
<line class="st11" x1="8.7" y1="14.6" x2="11.4" y2="17.5"/>
<line class="st11" x1="8.7" y1="17.5" x2="11.5" y2="14.7"/>
<line class="st11" x1="19.8" y1="10.7" x2="22.5" y2="13.6"/>
<line class="st11" x1="19.8" y1="13.6" x2="22.6" y2="10.8"/>
</svg>
