<?xml version="1.0" encoding="utf-8"?>
<!-- Generator: Adobe Illustrator 25.4.1, SVG Export Plug-In . SVG Version: 6.00 Build 0)  -->
<svg version="1.1" id="Layer_1" xmlns="http://www.w3.org/2000/svg" xmlns:xlink="http://www.w3.org/1999/xlink" x="0px" y="0px" width='40px' height='40px'
	 viewBox="0 0 40 40" style="enable-background:new 0 0 40 40;" xml:space="preserve">
<style type="text/css">
	.st0{fill:#F0ED78;}
	.st1{fill:none;stroke:#FFFFFF;stroke-width:1.5;stroke-linecap:round;stroke-linejoin:round;}
	.st2{fill:#273C52;}
	.st3{fill:#23374C;}
	.st4{fill:#263B51;}
	.st5{fill:#0E74C3;}
	.st6{fill:#FAFDFD;}
	.st7{fill:#FCFDFC;}
	.st8{fill:#FBFDFC;}
	.st9{fill:none;stroke:#293D53;stroke-miterlimit:10;}
	.st10{fill:none;stroke:#1F79BE;stroke-miterlimit:10;}
	.st11{fill:none;stroke:#3A4A5D;stroke-miterlimit:10;}
</style>
<path class="st0" d="M8,0h24c4.4,0,8,3.6,8,8v24c0,4.4-3.6,8-8,8H8c-4.4,0-8-3.6-8-8V8C0,3.6,3.6,0,8,0z"/>
<path class="st1" d="M16,20"/>
<path class="st1" d="M24,20"/>
<path class="st1" d="M20,16"/>
<path class="st2" d="M20.2,4.6c1.7,0,3.4,0,5.2,0c2-0.1,3.8,1.5,3.9,3.5c0,0.1,0,0.2,0,0.3c0,0.9,0,1.8,0,2.6c0,0.3,0,0.7-0.4,0.7
	s-0.5-0.3-0.5-0.6c0.1-0.7-0.4-0.7-0.9-0.7c-4.9,0-9.8,0-14.6,0c-0.7,0-0.9,0.2-0.9,0.9s0,1.5,0,2.3c0,0.3-0.1,0.6-0.4,0.6
	s-0.5-0.3-0.5-0.7c0-1.9-0.1-3.8,0-5.6c0.1-1.9,1.8-3.4,3.7-3.3C16.6,4.6,18.4,4.6,20.2,4.6z"/>
<path class="st3" d="M20.2,33.7c-1.7,0-3.4,0-5.1,0c-2,0.1-3.8-1.4-3.9-3.5c0-0.1,0-0.3,0-0.4c0-1.3,0-2.6,0-4
	c0-0.4-0.1-0.9,0.5-0.9s0.4,0.5,0.4,0.9c0.1,2,0.1,2,2.2,2c4.3,0,8.6,0,12.9,0c1.1,0,1.4-0.3,1.3-1.3s0-2.1,0-3.2
	c0-0.4,0-0.8,0.4-0.9s0.5,0.4,0.5,0.8c0,2.3,0,4.6,0,7c0,1.9-1.6,3.5-3.6,3.5C23.9,33.7,22,33.7,20.2,33.7z"/>
<path class="st4" d="M26.8,12.7c1.2,0,2.4,0,3.6,0c1-0.1,2,0.6,2.1,1.6c0,0.1,0,0.3,0,0.4c0.1,1.6,0.1,3.1,0,4.7
	c0.1,1.1-0.7,2-1.8,2.1c-0.1,0-0.3,0-0.4,0c-0.4,0-0.7,0-1.1,0c-1.6-0.4-3.3,0.3-4.3,1.7c-0.2,0.3-0.5,0.8-1.1,0.5s-0.4-0.7-0.4-1.1
	c0-0.6,0-1.1-0.9-1.1c-1,0-1.7-0.9-1.7-1.8c0,0,0-0.1,0-0.1c0-1.6-0.1-3.2,0-4.8c-0.1-1,0.7-1.9,1.7-2c0.1,0,0.2,0,0.4,0
	C24.3,12.7,25.5,12.7,26.8,12.7z"/>
<path class="st5" d="M13.7,15.1c1.2,0,2.3,0,3.5,0c1.6,0,2.3,0.7,2.3,2.3s0,3,0,4.4c0.1,1-0.6,1.9-1.6,2c-0.1,0-0.1,0-0.2,0
	c-0.9,0.1-0.9,0.5-0.9,1.1c0,0.4,0.2,0.9-0.4,1.1c-0.4,0.1-0.8-0.1-1-0.5c-1-1.4-2.7-2.1-4.4-1.7c-0.4,0-0.8,0-1.2,0
	c-1.1,0-1.9-0.8-2-1.9c0,0,0-0.1,0-0.1c0-1.6,0-3.2,0-4.8c-0.1-1,0.7-1.9,1.8-2c0.1,0,0.2,0,0.3,0C11.2,15.2,12.5,15.2,13.7,15.1
	L13.7,15.1z"/>
<path class="st6" d="M20.2,9.6c-2.4,0-4.8-0.1-7.2,0c-0.9,0-1.1-0.3-1-1.1c-0.1-1.6,1.1-2.9,2.7-3c0.1,0,0.3,0,0.4,0
	c3.4,0,6.8,0,10.2,0c2.1,0,3.2,1.2,3.2,3.3c0,0.7-0.3,0.8-0.9,0.8C25,9.6,22.6,9.6,20.2,9.6z"/>
<path class="st7" d="M20.2,28.6c2.4,0,4.9,0,7.3,0c0.7,0,0.9,0.2,0.9,0.9c0.2,1.6-1,3.1-2.7,3.3c-0.2,0-0.4,0-0.5,0
	c-3.4,0-6.7,0-10.1,0c-1.6,0.1-3-1.1-3.1-2.7c0-0.1,0-0.3,0-0.4c0-0.8,0.2-1.1,1-1.1C15.4,28.7,17.8,28.6,20.2,28.6z"/>
<path class="st7" d="M24.6,22.4c0.1-1.3-0.3-1.9-1.6-1.8c-0.7,0.1-1.1-0.4-1.1-1.1c0-1.6,0-3.1,0-4.7c-0.1-0.6,0.4-1.1,0.9-1.2
	c0.1,0,0.2,0,0.3,0h7.4c0.6-0.1,1.1,0.4,1.2,1c0,0.1,0,0.2,0,0.3c0,1.5,0,3,0,4.6c0.1,0.6-0.4,1.2-1,1.2c-0.1,0-0.2,0-0.3,0
	c-0.4,0-0.9,0-1.3,0C27.3,20.5,25.7,20.5,24.6,22.4z"/>
<path class="st8" d="M15.8,24.8c-1.2-2.2-3.2-1.7-5.1-1.7s-2-0.1-2-2c0-1.2,0-2.4,0-3.6c0-1,0.4-1.4,1.5-1.4c2.3,0,4.6,0,7,0
	c0.9,0,1.4,0.4,1.4,1.3c0,1.5,0,3,0,4.4c0,0.7-0.3,1.3-1.1,1.3C16.3,22.9,15.8,23.4,15.8,24.8z"/>
<line class="st9" x1="25.3" y1="15.5" x2="28.5" y2="18.8"/>
<line class="st9" x1="28.5" y1="15.5" x2="25.3" y2="18.8"/>
<line class="st10" x1="13.4" y1="20.8" x2="16.3" y2="18.2"/>
<line class="st10" x1="12.5" y1="19.3" x2="14" y2="20.7"/>
<line class="st11" x1="18.7" y1="7.5" x2="21.7" y2="7.5"/>
</svg>
