<?xml version="1.0" encoding="utf-8"?>
<!-- Generator: Adobe Illustrator 25.4.1, SVG Export Plug-In . SVG Version: 6.00 Build 0)  -->
<svg version="1.1" id="Layer_1" xmlns="http://www.w3.org/2000/svg" xmlns:xlink="http://www.w3.org/1999/xlink" x="0px" y="0px" width='40px' height='40px'
	 viewBox="0 0 1163.8 343.8" style="enable-background:new 0 0 1163.8 343.8;" xml:space="preserve">
<style type="text/css">
	.st0{fill:#FFFFFF;}
	.st1{fill:#61DAFB;}
</style>
<g>
	<path class="st0" d="M54.2,69.8c-25.8,2.8-42.5,18.1-47.6,43.6c-4.1,20.2-0.9,38.5,9.5,53.8c8.5,12.6,15.1,16.4,46.3,25.4
		c24.2,7,28.8,9.7,30,17.1c2,12-6,21-19,21c-10.7,0-16.4-4-20.9-14.9c-3.3-8-4.1-9.1-7.7-8.3c-2.2,0.4-11.9,1.8-21.7,3
		c-24.2,3-23.7,2.8-22.5,9.7c3.9,20.2,15.5,37.9,29,44.6c17.1,8.5,44.9,10.7,65.3,5.2c28.4-7.4,45.5-34.1,44-68.3
		c-1.6-35.1-17.5-51.9-56-59.9C56,136.3,51,133.4,51,123.6c0-11.9,10.4-18.3,22.4-14c6.1,2.2,12.9,10.3,12.9,15.2
		c0,1.6,0.7,2.8,1.5,2.8c3.3,0,46.7-6.7,47.1-7c0.3-0.4-1.5-6.2-3.9-13.1C119.3,75.6,97.5,64.9,54.2,69.8z"/>
	<path class="st0" d="M229.2,72.6c-9.1,2.8-16.6,9.1-25.6,21.4l-8.4,11.3V90V74.7h-23.1H149v97.9v97.9h25h25.1l0.4-58.2
		c0.4-53.3,0.7-58.6,3.1-65.7c3.5-10.6,8.3-15.5,15.1-15.8c7.5-0.6,13,3.4,16.3,11.2c2.3,5.8,2.6,11.3,3,67.4l0.5,61.1h25.1h25
		l-0.4-75.3c-0.5-66.2-0.8-76.3-3-84.6c-3.4-13.5-12.8-28.3-21.4-33.9C254.7,71.7,238.9,69.6,229.2,72.6z"/>
	<path class="st0" d="M355.5,72.1c-23.5,2.4-38.7,12-46.5,29.9c-3.9,8.9-8.1,26.6-6.8,28.7c1.1,1.2,38.5,7.9,44.6,7.9
		c1.8,0,3.5-2.4,5-7c3.4-10.6,9.1-14,22.4-14.1c10.9,0,11.5,0.1,14.7,5.8c2.3,4,3.3,7.7,3,11.9c-0.4,5.5-1.2,6.4-7.7,9.8
		c-4.1,2.1-18.7,7.3-32.6,11.9c-34.9,11.3-44,18-50.8,37.2c-4.1,11.8-4.1,37.2,0,48.6c3.9,11.2,14,23.9,21.8,28.1
		c20.2,10.7,50.8,3.6,66.8-15.2c2.8-3.3,5.4-6.1,5.8-6.1s1.1,3,1.5,6.7c0.4,3.6,1.8,8.6,3,11.2c2,4.2,2.8,4.5,25.1,4.5
		c12.6,0,22.9-0.4,22.9-1s-1.1-4.5-2.3-8.6c-1.9-6.2-2.4-17.4-3.1-72c-0.8-59.9-1.1-65.5-3.8-75.7c-4.2-15.8-9.9-25-19.7-32.1
		C405.9,72.7,384.2,69.3,355.5,72.1z M391.5,204.8c-1.1,8.5-8,20.2-14.9,24.8c-3,2.1-8.7,3.9-12.5,3.9c-9.5,0-15.5-7.3-15.7-19
		c-0.3-11.5,5.2-17.7,22.4-25.4c7.7-3.6,15.5-7,17.4-7.9c3.3-1.3,3.4-1.2,3.8,7.7C392.2,194,392,201.1,391.5,204.8z"/>
	<path class="st0" d="M533.4,72.4c-7.2,3.4-11.4,7.4-19.5,19l-6.5,9.1V87V73.6h-23.7H460v134v134.2l7.2,1.2c3.8,0.6,15.3,1,25.4,0.6
		l18.3-0.6l0.4-46.3l0.3-46l4.7,5.5c2.7,2.8,8.3,7.7,12.6,10.7c6.8,4.6,9.4,5.5,20.6,5.2c17.9,0,26.2-5.1,38.1-22.8
		c13.8-20.8,18.3-42.4,17.1-84c-1.1-34.1-6.1-54.7-18.2-73.9c-9.5-15.2-18.6-20.8-34.3-21.4C543.9,69.8,537.2,70.7,533.4,72.4z
		 M546.2,132.4c6.5,9.2,9.2,24.2,8.3,44.2c-1.1,23.4-6.1,35.7-16.3,39.4c-8.5,3.3-19-4.5-23.5-17.6c-3-8.5-3.9-33.2-1.9-45.8
		C517,126.1,534.6,115.6,546.2,132.4z"/>
</g>
<g>
	<path class="st1" d="M667.9,69.3c-25.8,2.8-42.5,18.1-47.6,43.6c-4.1,20.2-0.9,38.5,9.5,53.8c8.5,12.6,15.1,16.4,46.3,25.4
		c24.2,7,28.8,9.7,30,17.1c2,12-6,21-19,21c-10.7,0-16.4-4-20.9-14.9c-3.3-8-4.1-9.1-7.7-8.3c-2.2,0.4-11.9,1.8-21.7,3
		c-24.2,3-23.7,2.8-22.5,9.7c3.9,20.2,15.5,37.9,29,44.6c17.1,8.5,44.9,10.7,65.3,5.2c28.4-7.4,45.5-34.1,44-68.3
		c-1.6-35.1-17.5-51.9-56-59.9c-26.9-5.5-31.9-8.3-31.9-18.1c0-11.9,10.4-18.3,22.4-14c6.1,2.2,12.9,10.3,12.9,15.2
		c0,1.6,0.7,2.8,1.5,2.8c3.3,0,46.7-6.7,47.1-7c0.3-0.4-1.5-6.2-3.9-13.1C733,75.3,711.2,64.6,667.9,69.3z"/>
	<path class="st1" d="M765.6,135.2v135.2h25h25l0.5-57.1c0.7-63.4,1.5-69.9,9.8-78.7c5.7-6.1,16.8-6.2,21.2-0.4
		c6.4,8.5,6.8,13.1,6.8,76.8v59.5h25.8h25.8v-64.3c0-35.1-0.7-70.2-1.4-77.6c-2.6-26.6-10-42.8-23.7-52.2c-5.7-3.9-9.1-4.6-20.4-4.6
		c-16.3,0-22.9,3.3-35.4,17.4l-8.7,9.7V49.4V0h-25.1h-25.1L765.6,135.2L765.6,135.2z"/>
	<path class="st1" d="M964.4,74.4c-13,4.9-22.7,13.1-32.6,27.5c-10.2,15.2-14.8,27.8-17.9,49.7c-2.4,17.4-2.4,26.2,0,44
		c2.8,19.9,8.1,34.5,17.5,48.6c14.2,21,32.4,30.9,57.3,31.1c34.9,0,61.5-25.3,70.8-67.7c9.9-44,0.1-93.1-23.1-116.9
		c-13.4-13.7-23.5-17.7-45.2-18.6C977.7,71.6,969.9,72.3,964.4,74.4z M999.4,127.6c4.9,4,9.6,14.1,11.5,24.2
		c1.9,10.7,1.6,34.4-0.5,45.7c-7.2,35.1-37.2,35.6-45.1,0.6c-3.4-15.3-2.3-44,2.2-55.9C974.6,123.3,987.5,117.5,999.4,127.6z"/>
	<path class="st1" d="M1109.1,21.3l-24.8,19.2v17.9v18h-9.5h-9.5v27.2v27.1l9.2,0.6l9.1,0.6l0.8,51.5c0.8,50.4,1.5,59.9,6,69.9
		c6.4,14.7,15.5,21,32.6,22.5c12.1,1.2,36.5-2.2,39.9-5.2c1.2-1.2,1.2-6.2,0.1-20.5c-2.4-33.2-2.3-32.3-6.4-29.9
		c-1.9,1-6.5,2.1-10.2,2.2c-11.1,0.1-11.1,0.1-11.7-48.8l-0.4-42.4h14.4h14.4l-0.4-26.8l-0.4-26.6l-13.8-0.6l-14-0.6l-0.3-36.9
		l-0.4-36.9L1109.1,21.3z"/>
</g>
</svg>
