<?xml version="1.0" encoding="utf-8"?>
<!-- Generator: Adobe Illustrator 25.4.1, SVG Export Plug-In . SVG Version: 6.00 Build 0)  -->
<svg version="1.1" id="Layer_1" xmlns="http://www.w3.org/2000/svg" xmlns:xlink="http://www.w3.org/1999/xlink" x="0px" y="0px" width='40px' height='40px'
	 viewBox="0 0 40 40" style="enable-background:new 0 0 40 40;" xml:space="preserve">
<style type="text/css">
	.st0{fill:#365CC9;}
	.st1{fill:none;stroke:#FFFFFF;stroke-width:1.5;stroke-linecap:round;stroke-linejoin:round;}
	.st2{fill:#233950;}
	.st3{fill:#24384D;}
	.st4{fill:#C9A336;}
	.st5{fill:#23374C;}
	.st6{fill:#304256;}
	.st7{fill:#F5FCFB;}
	.st8{fill:#F9FBFA;}
	.st9{fill:#DBE9ED;}
	.st10{fill:#B4C3CE;}
	.st11{fill:#F7FCFC;}
</style>
<path class="st0" d="M8,0h24c4.4,0,8,3.6,8,8v24c0,4.4-3.6,8-8,8H8c-4.4,0-8-3.6-8-8V8C0,3.6,3.6,0,8,0z"/>
<path class="st1" d="M16,20"/>
<path class="st2" d="M17.5,28.8c-0.3-2.3,0.9-4.2,3-6.1c3.5-3.2,6.7-6.6,10-9.9c1.5-1.5,2.8-1.5,4.3,0c0.4,0.4,0.8,0.8,1.1,1.2
	c0.8,1,0.7,2.4-0.3,3.4c-4.1,4.2-8.3,8.3-12.4,12.5c-0.4,0.4-0.9,0.5-1.4,0.6c-0.9,0.1-1.9,0.2-2.8,0.4
	C17.3,31.1,17.3,31.1,17.5,28.8z"/>
<path class="st3" d="M9.5,12.9c0-1.5,0-3,0-4.4c0-1.5,0.7-2.2,2.1-2.2c2.6,0,5.1,0,7.7,0c0.4,0,0.9-0.1,0.9,0.4
	c0,0.6-0.6,0.4-0.9,0.4c-2.5,0-5,0-7.4,0c-1.1,0-1.5,0.4-1.5,1.5c0,2.8,0,5.6,0,8.4c0,1.1,0.4,1.5,1.5,1.5c2.8,0,5.6,0,8.4,0
	c1.1,0,1.5-0.4,1.5-1.5c0-1.3,0-2.6,0-4c0-0.3-0.1-0.8,0.5-0.8c0.4,0,0.4,0.5,0.4,0.8c0,1.4,0,2.9,0,4.3c0,1.3-0.7,2-2,2
	c-3,0-6,0-9,0c-1.4,0-2-0.7-2.1-2.1C9.5,15.8,9.5,14.3,9.5,12.9z"/>
<path class="st4" d="M24.9,7.8c0,0.6-0.2,0.8-0.5,1.1c-2.4,2.4-4.9,4.9-7.3,7.3c-0.7,0.7-1.3,0.7-2,0c-1.2-1.2-2.4-2.4-3.7-3.6
	c-0.7-0.7-0.6-1.2,0-1.8c0.2-0.2,0.5-0.4,0.7-0.7c0.7-0.8,1.3-0.7,2,0c0.6,0.6,1.3,1.7,1.9,1.7c0.6,0,1.3-1.1,1.9-1.7
	c1.2-1.2,2.5-2.4,3.6-3.6c0.8-0.8,1.4-0.8,2.1,0C24.2,6.9,24.8,7.2,24.9,7.8z"/>
<path class="st5" d="M16,34.9c-1.5,0-3,0-4.4,0s-2-0.7-2.1-2.1c0-3,0-6,0-9c0-1.3,0.7-2,1.9-2c2.3,0,4.6,0,6.8,0
	c0.3,0,0.7-0.1,0.8,0.4c0,0.6-0.4,0.4-0.8,0.5c-2.1,0-4.2,0-6.4,0c-1.1,0-1.5,0.5-1.5,1.5c0,2.8,0,5.6,0,8.4c0,1.1,0.5,1.5,1.5,1.5
	c2.8,0,5.6,0,8.4,0c1,0,1.5-0.4,1.5-1.4c0-0.3,0-0.7,0.4-0.7c0.5,0,0.4,0.4,0.4,0.7c0.1,1.4-0.6,2.2-2,2.2S17.6,34.9,16,34.9z"/>
<path class="st6" d="M11.3,28.3c0-1.3,0-2.6,0-3.8c0-0.7,0.2-1,0.9-1c1.6,0,3.1,0,4.7,0c0.3,0,0.7,0,0.8,0.4c0,0.5-0.4,0.5-0.8,0.5
	c-1.2,0-2.5,0-3.7,0c-0.7,0-1,0.1-1,0.9c0.1,2,0,4,0,6c0,0.8,0.2,0.9,1,0.9c2.1,0,4.2,0,6.4,0c0.4,0,1-0.1,1,0.5s-0.6,0.4-1,0.4
	c-2.4,0-4.8,0-7.2,0c-0.9,0-1.1-0.3-1.1-1.1C11.3,30.8,11.3,29.6,11.3,28.3z"/>
<path class="st7" d="M33.2,18.6c-0.2,0.2-0.4,0.4-0.5,0.6c-2.7,2.7-5.4,5.4-8.1,8.1c-0.4,0.4-0.7,0.5-1.1,0
	c-0.8-0.9-1.7-1.8-2.6-2.6c-0.5-0.4-0.3-0.7,0-1c2.7-2.7,5.4-5.4,8.1-8.1c0.5-0.5,0.7-0.6,1.2,0c0.8,0.9,1.7,1.7,2.5,2.6
	C32.9,18.3,33,18.4,33.2,18.6z"/>
<path class="st8" d="M18.6,27.1c0-0.3,0.1-0.6,0.1-0.8c0-0.6,0.4-1,0.9-1.2c0.4-0.2,0.6,0.3,0.9,0.6c0.8,0.8,1.5,1.6,2.4,2.3
	c0.5,0.5,0.4,0.8-0.1,1.1C22,29.7,21,30,20.3,29.6C19.5,29,18.4,28.4,18.6,27.1z"/>
<path class="st8" d="M32.7,12.6c1.4,0,3.3,2.5,2.8,3.7c-0.3,0.6-0.7,1.1-1.4,0.3c-0.7-0.8-1.5-1.5-2.2-2.2c-0.3-0.3-0.9-0.5-0.7-1
	C31.6,12.8,32.1,12.6,32.7,12.6z"/>
<path class="st9" d="M30.3,14.3c1.2,1.2,2.4,2.4,3.6,3.6c0.1-0.1,0.1-0.1,0.2-0.2c-1.2-1.2-2.4-2.5-3.6-3.7
	C30.5,14.1,30.4,14.2,30.3,14.3z"/>
<path class="st10" d="M18.6,29.2c0.2,0.2,0.5,0.3,0.5,0.6c0,0.2-0.2,0.2-0.4,0.2c-0.3,0-0.5,0-0.5-0.4
	C18.3,29.5,18.3,29.3,18.6,29.2z"/>
<path class="st11" d="M13.2,10c0.5,0.6,0.7,0.9,1,1.2c2.2,2.1,1.8,2.2,4,0c1.3-1.4,2.7-2.7,4-4.1c0.5-0.5,0.8-0.4,1.1,0.1
	c0.3,0.4,0.9,0.6,0.2,1.2c-2.3,2.3-4.6,4.6-6.9,6.9c-0.4,0.4-0.6,0.3-1,0c-1.1-1.1-2.1-2.1-3.2-3.2c-0.2-0.2-0.6-0.4-0.3-0.8
	C12.5,11,12.8,10.6,13.2,10z"/>
<path class="st4" d="M29.9,17c0,0.4-0.3,0.6-0.5,0.8c-2.1,2.1-4.2,4.2-6.3,6.3c-0.3,0.3-0.6,0.8-1.1,0.3c-0.4-0.4,0.2-0.7,0.4-1
	c2.1-2.2,4.3-4.3,6.4-6.4c0.2-0.2,0.4-0.6,0.8-0.3C29.8,16.7,29.8,16.9,29.9,17z"/>
<path class="st4" d="M31.6,18.7c-0.2,0.2-0.3,0.4-0.5,0.6c-2.2,2.2-4.3,4.3-6.5,6.5c-0.3,0.3-0.6,0.7-1,0.3
	c-0.3-0.4,0.1-0.6,0.3-0.9c2.2-2.2,4.3-4.3,6.5-6.5c0.2-0.2,0.4-0.6,0.8-0.3C31.4,18.4,31.5,18.6,31.6,18.7z"/>
</svg>
