<?xml version="1.0" encoding="utf-8"?>
<!-- Generator: Adobe Illustrator 25.4.1, SVG Export Plug-In . SVG Version: 6.00 Build 0)  -->
<svg version="1.1" id="Layer_1" xmlns="http://www.w3.org/2000/svg" xmlns:xlink="http://www.w3.org/1999/xlink" x="0px" y="0px" width='40px' height='40px'
	 viewBox="0 0 40 40" style="enable-background:new 0 0 40 40;" xml:space="preserve">
<style type="text/css">
	.st0{fill:#3EC150;}
	.st1{fill:none;stroke:#FFFFFF;stroke-width:1.5;stroke-linecap:round;stroke-linejoin:round;}
	.st2{fill:#253A4F;}
	.st3{fill:#C13EAF;}
	.st4{fill:#FCFDFD;}
	.st5{fill:#F4FAFA;}
	.st6{fill:#F7FAF9;}
	.st7{fill:#F0F7FB;}
	.st8{fill:#FAFDFC;}
	.st9{fill:#314455;}
	.st10{fill:#213548;}
	.st11{fill:#21364A;}
	.st12{fill:none;stroke:#2A3F54;stroke-miterlimit:10;}
</style>
<path class="st0" d="M8,0h24c4.4,0,8,3.6,8,8v24c0,4.4-3.6,8-8,8H8c-4.4,0-8-3.6-8-8V8C0,3.6,3.6,0,8,0z"/>
<path class="st1" d="M16,20"/>
<path class="st2" d="M31,27.9c0,1,0,1.9,0,2.9c-0.1,1.9-1.3,3.1-3.2,3.1c-4.6,0-9.3,0-13.9,0c-1.9,0-3.1-1.2-3.1-3.1
	c0-7.2,0-14.3,0-21.5c0-1.5,0.9-2.3,2.4-2.3c0.8,0,1.5,0,2.3,0c0.7,0,1.4,0.2,1.8-0.7C17.4,6,17.8,6,18.2,6c0.3,0,0.5,0,0.8-0.2
	c1.3-1.3,2.6-1.3,4,0c0.4,0.4,1.2,0,1.4,0.4C25.1,7.4,26.2,7,27.2,7c3.5,0,3.9,0.4,3.9,3.8c0,2.6,0,5.3,0,7.9c-0.3,0.3-0.7,0.3-1,0
	c-0.3-0.5-0.2-1-0.2-1.5c0-2.5,0-4.9,0-7.4c0-1.3-0.2-1.5-1.5-1.5c-0.7,0-1.4,0-2,0c0.7,0.1,1.4,0,2.1,0c0.7,0.1,1.3,0.3,1.3,1.1
	c0.1,3,0.2,6,0,9c0,0.2-0.1,0.3-0.2,0.4c-1,0.3-1-0.4-1.1-1.1c0-2.1,0-4.2,0-6.3c0-0.5,0.1-1-0.2-1.4c-1-0.6-2.1-0.5-3.1,0
	c-0.9,0.5-1.7,0.6-2.6,0.6c-1.2,0-2.3,0-3.5,0c-0.5,0-1,0-1.4-0.2c-1.4-0.6-1.4-0.6-2.4,0.7h0.1c0.3-0.4,0.5-1,1.1-0.8
	c0.5,0.2,0.6,0.6,0.6,1.1c0,0.6-0.2,1.2-0.9,1.4c-0.5,0.1-1,0.2-1.5,0.2c-0.6,0-0.8,0.3-0.8,0.9c0,5.3,0,10.6,0,15.9
	c0,0.9,0.4,1.2,1.2,1.2c4,0,8.1,0,12.1,0c0.4,0,0.8-0.1,1.1-0.4c0.4-0.6,0.2-1.3,0.3-2c0.1-0.6,0.2-1.2,1.1-0.9
	c0.5,1.2,0.4,2.4,0.1,3.5c-0.3,1.2-1.4,1.4-2.5,1.4c-2.7,0-5.4,0-8,0c-1.4,0-2.9,0-4.3,0c-1.9,0-2.7-0.8-2.7-2.7
	c0-5.4,0-10.9,0-16.3c0-1.2,0.4-2.2,1.2-3S15,9,16,8.3c0-0.2-0.2-0.2-0.3-0.2C12.1,8.2,12,8.3,12,11.6c0,6.2,0,12.4,0,18.6
	c0,1.8,0.8,2.6,2.5,2.6c4.2,0,8.5,0,12.7,0c1.9,0,2.5-0.7,2.5-2.5c0-0.8-0.2-1.6,0.2-2.4C30.4,27.6,30.7,27.6,31,27.9z"/>
<path class="st3" d="M30.2,18.8c0.3,0,0.6,0,0.9,0c2,0.5,2,0.5,2,2.9c0,1.6-0.1,3.1,0,4.7c0.1,1.2-0.4,1.7-1.6,1.6
	c-0.2,0-0.3,0-0.5,0.1c-0.3,0-0.6,0-0.9,0c-0.3,0.2-0.5,0.2-0.8,0c-0.6-0.1-0.7,0.2-0.8,0.7c0,0.8,0.1,1.5-0.1,2.3
	c-0.6-0.4-0.4-1.1-0.5-1.6c-0.1-1-0.4-1.1-1.2-0.5c-0.5,0.4-0.8,0.9-1.3,1.2c-0.8,0.6-1.4,0.4-1.7-0.6c-0.2-0.7-0.6-1.1-1.3-1.2
	c-1-0.1-1.5-0.7-1.6-1.7c-0.1-2.1-0.1-4.2,0-6.3c0.1-1.1,0.5-1.5,1.7-1.5c1.4,0,2.7,0,4.1,0c1.2,0,1.3-0.1,1.4-1.4c0-2,0-4,0-6
	c0-0.5-0.1-1.1,0.4-1.5c0.2,2.7,0,5.4,0.1,8.1c0,0.5-0.1,1.1,0.7,1C29.7,18.7,29.9,18.7,30.2,18.8z"/>
<path class="st4" d="M28.5,9.7c0,2.7-0.1,5.4,0,8.1c0,0.8-0.2,1.1-1.1,1.1c-1.7-0.1-3.4,0-5,0c-0.8,0-1.1,0.3-1.1,1.1
	c0,2.2,0,4.5,0,6.7c0,0.8,0.4,1.2,1.2,1.1c1.1-0.1,1.7,0.1,1.5,1.4c0,0.3,0,0.7,0.3,0.8c0.4,0.2,0.7-0.1,0.9-0.3
	c0.5-0.5,1-1,1.5-1.5c0.4-0.4,0.9-0.4,1.3-0.3c0.6,0.1,0.3,0.7,0.3,1c0.1,0.7,0,1.4,0.1,2c-0.1,0.6-0.6,0.6-1,0.6
	c-4.4,0-8.8,0-13.2,0c-0.7,0-1-0.2-1-0.9c0-5.7,0-11.4,0-17.1c0-0.6,0.1-0.8,0.7-0.7c0.5,0,1,0,1.4,0c0.9,0,1.3-0.4,1.2-1.2
	c0-0.4,0.1-0.9-0.4-1c-0.6-0.1-0.4,0.5-0.5,0.9c-0.2,1-1,0.3-1.7,0.3c0.6-0.6,1.2-1.3,1.9-1.9c0.3-0.3,0.8-0.4,1.1,0
	c0.5,0.7,1.1,0.6,1.8,0.6c1.3,0,2.6,0,4,0c0.8,0,1.4-0.2,2.1-0.6C26,9.2,27.3,9.3,28.5,9.7z"/>
<path class="st5" d="M29.4,27.9c0.3-0.1,0.5-0.1,0.8,0c0,1,0,1.9,0,2.9c0,1.3-0.8,2.3-2.1,2.3c-4.7,0-9.4,0-14.1,0
	c-1.4,0-2.2-0.9-2.2-2.3c0-7.1,0-14.1,0-21.2c0-1.1,0.5-1.6,1.6-1.6c1,0,2.1,0,3.1,0C16.7,8,17,8,17,8.3c0,0.3-0.2,0.3-0.5,0.4
	c-2,0.5-4.1,3.2-4.1,5.3c0,5.5,0,10.9,0,16.4c0,1.6,0.4,2,2,2c4.4,0,8.7,0,13.1,0c1.5,0,1.9-0.4,1.9-1.9
	C29.4,29.6,29.4,28.7,29.4,27.9z"/>
<path class="st6" d="M20.9,9.5c-0.4,0-0.9,0-1.3,0c-1.8,0-1.7,0-1.7-1.7c0-0.7,0.2-1.1,0.9-1c0.5,0.1,0.9,0,1-0.7
	c0.2-0.6,2-0.7,2.2,0s0.6,0.7,1.1,0.7c1.3-0.1,0.8,0.9,0.8,1.5c0.1,0.6,0.2,1.3-0.8,1.1H23C22.3,9.5,21.6,9.5,20.9,9.5z"/>
<path class="st7" d="M30.2,18.8c-0.3,0.2-0.5,0.2-0.8,0c0-3,0-6,0-9c0-0.8-0.3-1.2-1.1-1.1c-1,0.1-1.9,0-2.9,0c-0.3,0-0.6,0-0.6-0.4
	C24.8,8,25.1,8,25.3,8c1.2,0,2.3-0.1,3.5,0c1,0.1,1.2,0.8,1.2,1.7C30.1,12.7,30.2,15.7,30.2,18.8z"/>
<path class="st8" d="M25,28.7c0.1-1.6-0.6-1.9-1.9-1.8c-0.7,0.1-1-0.2-1-0.9c0.1-1.8,0-3.6,0-5.4c0-0.6,0.2-0.8,0.8-0.8
	c2.8,0,5.5,0,8.3,0c0.6,0,0.8,0.3,0.8,0.8c0,1.9,0,3.8,0,5.6c0,0.5-0.2,0.7-0.7,0.7s-1,0-1.4,0C28.2,26.9,26.2,26.5,25,28.7z"/>
<path class="st9" d="M21,15.1c-1.6,0-3.3,0-4.9,0c-0.4,0-0.9,0.1-1-0.4c0-0.6,0.5-0.5,0.9-0.5c3.3,0,6.5,0,9.8,0
	c0.4,0,0.8,0,0.8,0.4c0,0.6-0.5,0.5-0.9,0.5C24.2,15.1,22.6,15.1,21,15.1z"/>
<path class="st10" d="M17.8,16.6c0.7,0,1.3,0,2,0c0.2,0,0.5,0.1,0.5,0.4c0,0.4-0.2,0.5-0.5,0.5c-1.4,0-2.8,0-4.2,0
	c-0.3,0-0.5-0.2-0.5-0.4c0-0.3,0.2-0.4,0.5-0.4C16.3,16.6,17.1,16.6,17.8,16.6z"/>
<path class="st3" d="M18,20.1c-0.4,0.6-0.9,1.2-1.5,1.5s-0.9-0.4-1.2-0.8s0.1-0.9,0.4-0.7c0.8,0.6,1.1-0.1,1.6-0.4
	C17.6,19.4,17.8,19.5,18,20.1z"/>
<path class="st11" d="M21.1,7.9c0.4,0.3,1.5-0.5,1.5,0.5c0,0.7-1.1,0.3-1.6,0.4c-0.5,0.1-1,0-1.4,0c-0.3,0-0.5-0.1-0.5-0.4
	c0-0.3,0.2-0.4,0.5-0.4C20,7.9,20.5,7.9,21.1,7.9z"/>
<path class="st3" d="M26.7,25.2c-0.3,0-2-1.6-2-1.9c0.1-0.5,0.5-0.6,0.8-0.3c1.2,1.7,1.9,0.4,2.7-0.4c0.3-0.2,0.5-0.5,0.8-0.7
	c0.2-0.2,0.4-0.2,0.6,0s0.2,0.4,0.1,0.5c-0.9,0.9-1.8,1.8-2.7,2.7C26.9,25.2,26.8,25.2,26.7,25.2z"/>
<line class="st12" x1="15.5" y1="23" x2="17.5" y2="24.9"/>
<line class="st12" x1="15.5" y1="25" x2="17.5" y2="22.9"/>
<line class="st12" x1="15.6" y1="26.6" x2="17.6" y2="28.5"/>
<line class="st12" x1="15.6" y1="28.5" x2="17.6" y2="26.5"/>
</svg>
